<?xml version="1.0" standalone="no"?>
<!DOCTYPE svg PUBLIC "-//W3C//DTD SVG 20010904//EN"
 "http://www.w3.org/TR/2001/REC-SVG-20010904/DTD/svg10.dtd">
<svg version="1.0" xmlns="http://www.w3.org/2000/svg"
 width="200.000000pt" height="200.000000pt" viewBox="0 0 200.000000 200.000000"
 preserveAspectRatio="xMidYMid meet">

<g transform="translate(0.000000,200.000000) scale(0.100000,-0.100000)"
fill="#000000" stroke="none">
<path d="M0 1000 l0 -1000 1000 0 1000 0 0 1000 0 1000 -1000 0 -1000 0 0
-1000z m775 480 c3 -5 15 -10 26 -10 27 0 37 -30 14 -46 -21 -15 -35 -10 -35
13 0 9 -7 25 -17 35 -9 10 -11 18 -5 18 6 0 14 -4 17 -10z m102 -77 l-15 -38
-13 28 c-9 20 -9 33 -1 51 6 14 7 28 1 35 -5 6 3 0 17 -13 26 -24 27 -25 11
-63z m274 73 c-9 -11 -10 -20 -1 -35 8 -16 8 -27 -1 -43 -11 -21 -12 -21 -25
-3 -20 26 -17 45 8 72 23 25 38 32 19 9z m81 2 c-7 -7 -12 -22 -12 -33 0 -12
-3 -24 -6 -27 -11 -11 -42 4 -47 23 -4 16 1 21 24 26 16 3 32 10 35 14 3 5 8
9 12 9 3 0 1 -5 -6 -12z m-303 -117 c-15 -35 -24 -39 -33 -15 -16 43 6 86 32
60 12 -12 12 -19 1 -45z m181 8 c0 -9 -6 -22 -14 -28 -21 -17 -44 42 -25 65
12 14 14 14 26 -2 7 -10 13 -25 13 -35z m-336 32 c3 -4 16 -6 29 -4 17 3 26
-1 31 -13 8 -21 -12 -36 -34 -24 -23 12 -55 50 -42 50 6 0 13 -4 16 -9z m443
-26 c-29 -26 -60 -23 -55 4 2 10 13 16 30 16 14 0 30 3 34 8 4 4 10 4 13 1 3
-3 -6 -16 -22 -29z m-236 -29 c8 -17 8 -29 0 -44 -7 -14 -8 -23 -1 -27 5 -3
10 -11 10 -17 0 -16 -47 30 -53 51 -5 22 9 61 23 61 6 0 15 -11 21 -24z m73 8
c12 -31 5 -51 -26 -80 -18 -16 -25 -19 -15 -7 12 14 15 23 8 28 -15 8 -14 48
1 63 16 16 25 15 32 -4z m-170 -35 c-8 -13 -42 -11 -50 3 -4 6 1 17 12 25 16
12 20 11 31 -3 7 -9 10 -21 7 -25z m271 28 c21 -16 13 -37 -14 -37 -24 0 -30
8 -24 31 6 23 13 24 38 6z m-229 -54 c19 -26 17 -33 -10 -33 -31 0 -50 22 -34
38 17 17 29 15 44 -5z m178 11 c35 -14 11 -44 -35 -44 -18 0 -19 1 -3 25 18
28 17 27 38 19z m-176 -99 c-7 -15 -16 -21 -29 -18 -29 8 -32 20 -8 37 30 21
51 11 37 -19z m53 21 c-9 -10 -9 -20 0 -39 8 -18 8 -30 0 -46 -15 -27 -30 -27
-40 2 -10 27 -5 45 22 75 22 24 37 31 18 8z m56 -8 c26 -24 30 -69 9 -87 -12
-10 -17 -8 -26 9 -7 12 -9 33 -5 47 3 14 1 31 -6 39 -18 22 2 16 28 -8z m80
-5 c2 -6 -5 -16 -15 -22 -17 -9 -23 -6 -37 15 l-16 25 32 -3 c18 -2 34 -8 36
-15z m-238 -36 c8 -10 7 -17 -1 -25 -26 -26 -60 -4 -38 23 15 18 24 19 39 2z
m291 -16 c0 -9 -24 -21 -40 -21 -14 0 -21 33 -8 41 13 8 48 -6 48 -20z m-238
-38 c6 -8 5 -19 -2 -33 -9 -17 -14 -19 -26 -9 -17 14 -18 61 -1 78 10 10 13 9
16 -6 2 -10 7 -23 13 -30z m178 -3 c0 -9 -6 -24 -13 -34 -12 -16 -14 -16 -26
-2 -10 12 -10 22 0 51 12 33 15 34 26 19 7 -10 13 -25 13 -34z m-273 5 c1 -5
-2 -17 -7 -25 -7 -12 -13 -13 -28 -3 -15 9 -23 9 -33 0 -8 -7 -3 1 11 16 23
27 50 33 57 12z m381 -7 l21 -23 -34 -1 c-33 0 -52 17 -39 37 9 15 30 10 52
-13z m-328 -59 c0 -8 -11 -26 -25 -39 -14 -13 -25 -18 -25 -12 0 6 4 14 10 17
6 4 5 13 -2 25 -9 14 -9 25 1 47 l13 28 14 -25 c7 -14 13 -32 14 -41z m259 39
c5 -13 5 -33 0 -45 -5 -13 -4 -25 1 -28 6 -4 10 -11 10 -17 0 -6 -11 -1 -25
12 -28 26 -30 36 -15 74 12 32 18 33 29 4z m-331 -30 c18 -18 15 -38 -6 -38
-10 0 -29 -8 -42 -17 -25 -16 -25 -16 -7 3 9 12 17 30 17 42 0 24 19 29 38 10z
m398 -5 c3 -10 10 -26 15 -36 13 -24 6 -32 -11 -12 -7 8 -23 15 -36 15 -18 0
-22 4 -17 18 13 33 41 42 49 15z m-1008 -249 c25 -17 29 -56 9 -73 -8 -6 -27
-14 -44 -17 -26 -5 -29 -9 -25 -35 4 -28 3 -29 -42 -29 -42 0 -46 2 -46 25 0
14 5 25 10 25 6 0 10 13 10 29 0 17 -4 33 -10 36 -5 3 -10 17 -10 31 0 23 3
24 63 24 40 0 70 -5 85 -16z m152 -34 c7 -28 16 -53 21 -56 5 -3 9 -18 9 -35
0 -25 -4 -29 -29 -29 -16 0 -31 6 -35 15 -3 8 -12 15 -20 15 -7 0 -16 -7 -20
-15 -3 -9 -18 -15 -36 -15 -25 0 -30 4 -30 24 0 14 4 27 9 31 5 3 15 30 22 60
l12 55 43 0 42 0 12 -50z m188 34 c26 -18 28 -41 7 -70 -12 -19 -12 -24 0 -40
24 -31 18 -44 -20 -44 -28 0 -38 5 -45 23 l-9 22 0 -22 c-1 -20 -6 -23 -39
-23 l-38 0 0 85 0 85 61 0 c39 0 69 -6 83 -16z m170 -39 c8 -27 16 -65 19 -82
5 -31 4 -33 -26 -33 -21 0 -31 5 -31 15 0 8 -9 15 -20 15 -11 0 -20 -7 -20
-15 0 -10 -10 -15 -30 -15 -37 0 -38 15 -9 106 l21 65 41 -3 c40 -3 41 -4 55
-53z m176 45 c20 -7 26 -17 26 -39 0 -33 -12 -46 -60 -59 -19 -6 -29 -11 -22
-11 6 -1 12 -12 12 -26 0 -23 -4 -25 -43 -25 l-43 0 0 85 0 85 52 0 c29 0 64
-4 78 -10z m123 -25 c-5 -32 -4 -35 18 -35 22 0 23 3 18 35 l-6 35 47 0 c42 0
46 -2 46 -24 0 -14 -4 -28 -10 -31 -5 -3 -10 -19 -10 -35 0 -16 5 -32 10 -35
6 -3 10 -15 10 -26 0 -16 -7 -19 -46 -19 l-47 0 6 35 c5 32 4 35 -18 35 -22 0
-23 -3 -18 -35 l6 -35 -45 0 -44 0 0 85 0 85 44 0 45 0 -6 -35z m281 19 c25
-18 29 -56 7 -74 -14 -12 -14 -15 0 -36 22 -35 19 -44 -18 -44 -25 0 -37 6
-45 23 l-11 22 0 -22 c-1 -20 -6 -23 -41 -23 -36 0 -40 3 -40 25 0 14 5 25 10
25 6 0 10 13 10 29 0 17 -4 33 -10 36 -5 3 -10 17 -10 31 0 23 3 24 63 24 40
0 70 -5 85 -16z m173 -49 c27 -88 26 -105 -11 -105 -20 0 -30 5 -30 15 0 8 -9
15 -20 15 -11 0 -20 -7 -20 -15 0 -10 -10 -15 -30 -15 -25 0 -30 4 -30 25 0
14 4 33 10 43 5 9 14 36 20 60 11 43 11 43 52 40 40 -3 41 -4 59 -63z m157 33
c2 -20 -1 -28 -12 -28 -8 0 -18 5 -21 10 -8 12 -25 13 -25 1 0 -5 11 -12 25
-15 34 -9 50 -41 36 -72 -13 -30 -51 -45 -91 -38 -24 5 -30 12 -30 31 0 22 3
24 30 18 36 -8 40 2 5 15 -38 14 -52 53 -31 85 15 23 23 26 64 23 43 -3 47 -5
50 -30z m152 -3 c0 -32 -2 -35 -19 -25 -25 13 -31 13 -31 0 0 -5 7 -10 15 -10
8 0 15 -7 15 -15 0 -8 -7 -15 -15 -15 -8 0 -15 -5 -15 -11 0 -7 10 -9 25 -5
23 6 25 3 25 -24 l0 -30 -63 0 -63 0 0 85 0 85 63 0 63 0 0 -35z m148 29 c28
-8 39 -48 21 -80 -10 -19 -10 -27 -1 -36 7 -7 12 -20 12 -30 0 -14 -8 -18 -34
-18 -28 0 -36 5 -44 28 l-10 27 -1 -27 c-1 -25 -5 -28 -34 -28 l-33 0 0 85 0
85 51 0 c27 0 60 -3 73 -6z m-1110 -267 c3 -32 0 -37 -17 -37 -17 0 -21 6 -21
33 0 61 33 63 38 4z m182 -3 c0 -19 -4 -34 -10 -34 -5 0 -10 18 -10 41 0 24 4
38 10 34 6 -3 10 -22 10 -41z m17 -16 c-2 -13 -4 -3 -4 22 0 25 2 35 4 23 2
-13 2 -33 0 -45z m66 25 c-6 -39 -10 -50 -17 -42 -2 2 -6 21 -9 42 -5 32 -3
37 13 37 16 0 18 -5 13 -37z m132 -14 c0 -16 -3 -29 -7 -29 -5 0 -8 17 -8 37
0 20 3 33 8 29 4 -4 7 -21 7 -37z m-345 1 c0 -23 -4 -30 -20 -30 -14 0 -20 7
-20 23 0 27 7 37 27 37 8 0 13 -12 13 -30z m50 4 c0 -23 -20 -54 -34 -54 -3 0
-6 18 -6 40 0 33 3 40 20 40 15 0 20 -7 20 -26z m50 -4 c0 -23 -4 -30 -20 -30
-16 0 -20 7 -20 30 0 23 4 30 20 30 16 0 20 -7 20 -30z m168 -3 c3 -22 -1 -27
-17 -27 -17 0 -21 6 -21 31 0 24 4 30 18 27 10 -2 18 -14 20 -31z m49 3 c0
-21 -5 -28 -19 -27 -12 1 -18 9 -18 27 0 18 6 26 18 27 14 1 19 -6 19 -27z"/>
<path d="M140 780 c0 -11 5 -20 10 -20 6 0 10 9 10 20 0 11 -4 20 -10 20 -5 0
-10 -9 -10 -20z"/>
<path d="M300 755 c0 -14 4 -25 9 -25 4 0 6 11 3 25 -2 14 -6 25 -8 25 -2 0
-4 -11 -4 -25z"/>
<path d="M480 769 c0 -11 5 -17 10 -14 6 3 10 13 10 21 0 8 -4 14 -10 14 -5 0
-10 -9 -10 -21z"/>
<path d="M650 745 c0 -8 5 -15 10 -15 6 0 10 7 10 15 0 8 -4 15 -10 15 -5 0
-10 -7 -10 -15z"/>
<path d="M834 786 c-8 -22 3 -33 18 -18 9 9 9 15 0 24 -9 9 -13 7 -18 -6z"/>
<path d="M1230 769 c0 -11 5 -17 10 -14 6 3 10 13 10 21 0 8 -4 14 -10 14 -5
0 -10 -9 -10 -21z"/>
<path d="M1407 756 c-4 -10 -5 -21 -2 -24 9 -9 17 6 13 25 -3 17 -4 17 -11 -1z"/>
<path d="M1872 776 c1 -10 8 -17 13 -17 15 1 12 24 -3 29 -9 3 -13 -2 -10 -12z"/>
</g>
</svg>
