<?xml version="1.0" standalone="no"?>
<!DOCTYPE svg PUBLIC "-//W3C//DTD SVG 20010904//EN"
 "http://www.w3.org/TR/2001/REC-SVG-20010904/DTD/svg10.dtd">
<svg version="1.0" xmlns="http://www.w3.org/2000/svg"
 width="334.000000pt" height="200.000000pt" viewBox="0 0 334.000000 200.000000"
 preserveAspectRatio="xMidYMid meet">

<g transform="translate(0.000000,200.000000) scale(0.100000,-0.100000)"
fill="#000000" stroke="none">
<path d="M1168 1303 l27 -78 325 -5 c353 -6 369 -8 391 -61 18 -44 6 -115 -27
-162 -51 -71 -199 -157 -302 -174 l-32 -6 16 44 c8 24 37 106 64 182 l49 137
-118 0 -118 0 -91 -257 -92 -258 59 -165 c46 -127 61 -160 67 -145 5 11 33 89
64 174 l55 153 110 28 c225 57 375 130 481 235 53 52 75 83 87 119 36 106 10
214 -62 261 -76 51 -122 55 -568 55 l-412 0 27 -77z"/>
</g>
</svg>
